<?xml version="1.0" encoding="UTF-8" standalone="no"?>
<!-- Created with Inkscape (http://www.inkscape.org/) -->

<svg
   width="126.5172"
   height="121.99382"
   viewBox="0 0 126.5172 121.99382"
   version="1.1"
   id="svg5"
   inkscape:version="1.2.1 (9c6d41e, 2022-07-14)"
   sodipodi:docname="spp-strokes.svg"
   inkscape:export-filename="spp.svg"
   inkscape:export-xdpi="300"
   inkscape:export-ydpi="300"
   xmlns:inkscape="http://www.inkscape.org/namespaces/inkscape"
   xmlns:sodipodi="http://sodipodi.sourceforge.net/DTD/sodipodi-0.dtd"
   xmlns="http://www.w3.org/2000/svg"
   xmlns:svg="http://www.w3.org/2000/svg">
  <sodipodi:namedview
     id="namedview7"
     pagecolor="#ffffff"
     bordercolor="#999999"
     borderopacity="1"
     inkscape:showpageshadow="0"
     inkscape:pageopacity="0"
     inkscape:pagecheckerboard="0"
     inkscape:deskcolor="#d1d1d1"
     inkscape:document-units="px"
     showgrid="false"
     inkscape:zoom="2.3762512"
     inkscape:cx="44.187247"
     inkscape:cy="38.295614"
     inkscape:window-width="1440"
     inkscape:window-height="740"
     inkscape:window-x="0"
     inkscape:window-y="31"
     inkscape:window-maximized="0"
     inkscape:current-layer="g612" />
  <defs
     id="defs2" />
  <g
     inkscape:label="Layer 1"
     inkscape:groupmode="layer"
     id="layer1"
     transform="translate(-71.498633,42.137758)">
    <g
       id="g612"
       transform="translate(0.11380501,-6.0001963)">
      <g
         aria-label="S
"
         transform="scale(0.83177534,1.2022477)"
         id="text236"
         style="font-weight:500;font-size:134.701px;line-height:1.25;font-family:'Fira Code';-inkscape-font-specification:'Fira Code, Medium';stroke-width:3.36751">
        <path
           d="m 157.24832,41.435165 q 0,8.496525 -4.35188,15.058882 -4.2828,6.493279 -12.50302,10.154383 -8.22021,3.592027 -19.47984,3.592027 -11.25962,0 -20.03245,-3.315717 -8.772837,-3.384794 -15.058884,-9.463609 l 8.772835,-9.808996 q 5.249885,4.83542 11.674089,7.391286 6.49328,2.555865 14.57534,2.555865 5.52619,0 9.94715,-1.726936 4.49003,-1.796013 7.11497,-5.249885 2.69402,-3.453872 2.69402,-8.427448 0,-4.282801 -1.72693,-7.184053 -1.72694,-2.901253 -5.94066,-5.180808 Q 128.71933,27.5506 121.05174,25.271045 110.48289,22.093483 103.78238,18.363301 97.150946,14.633119 93.697074,9.4523116 90.312279,4.2024263 90.312279,-3.1197821 q 0,-7.5985179 4.213724,-13.4700999 4.282801,-5.871583 11.743167,-9.049145 7.46036,-3.246639 16.78582,-3.246639 10.01622,0 17.82197,2.901252 7.87483,2.901252 14.0918,8.565602 l -8.42745,9.5326867 q -4.90449,-4.2828007 -10.63792,-6.3551247 -5.73343,-2.072323 -11.88132,-2.072323 -7.6676,0 -12.50302,3.177562 -4.76634,3.1775626 -4.76634,9.1182222 0,3.79925911 2.00325,6.3551243 2.07232,2.5558652 6.76958,4.7663432 4.69727,2.2104781 13.53918,4.8354203 8.98007,2.69402 15.05888,6.147892 6.07882,3.384795 9.60177,9.118222 3.52295,5.66435 3.52295,14.229952 z"
           id="path4448" />
      </g>
      <g
         id="g4116"
         transform="translate(67.612424,-53.846112)">
        <g
           aria-label="+
"
           transform="scale(0.99848021,1.0015221)"
           id="text400"
           style="font-weight:bold;font-size:56.467px;line-height:1.25;font-family:'Fira Code';-inkscape-font-specification:'Fira Code, Bold';stroke-width:1.41162">
          <path
             d="m 111.17331,80.00726 h 7.64476 v 11.901506 h 11.66985 v 7.065614 h -11.66985 v 11.90151 h -7.64476 V 98.97438 H 99.561375 v -7.065614 h 11.611935 z"
             id="path4442" />
        </g>
        <g
           aria-label="+
"
           transform="scale(0.99848021,1.0015221)"
           id="text400-0"
           style="font-weight:bold;font-size:56.467px;line-height:1.25;font-family:'Fira Code';-inkscape-font-specification:'Fira Code, Bold';stroke-width:1.41162">
          <path
             d="m 111.17331,46.208928 h 7.64476 v 11.901506 h 11.66985 v 7.065614 h -11.66985 v 11.901506 h -7.64476 V 65.176048 H 99.561375 v -7.065614 h 11.611935 z"
             id="path4445" />
        </g>
      </g>
      <g
         aria-label="LURM
"
         transform="scale(1.1671604,0.85678028)"
         id="text598"
         style="font-size:37.5831px;line-height:1.25;font-family:Futura;-inkscape-font-specification:'Futura, Normal';letter-spacing:7.16965px;stroke-width:0.939587">
        <path
           d="m 127.51793,-42.17833 v 24.315238 h 8.33141 v 4.018896 H 123.24212 V -42.17833 Z"
           style="letter-spacing:0px;writing-mode:vertical-lr;text-orientation:upright"
           id="path4433" />
        <path
           d="M 121.96672,-4.5952266 V 12.471317 q 0,3.651874 1.19282,5.340177 1.78006,2.4407 5.00986,2.4407 3.24815,0 5.02821,-2.4407 1.19282,-1.63325 1.19282,-5.340177 V -4.5952266 h 4.27581 V 13.645789 q 0,4.477674 -2.78937,7.377152 -3.13804,3.229797 -7.70747,3.229797 -4.56943,0 -7.68912,-3.229797 -2.78937,-2.899478 -2.78937,-7.377152 V -4.5952266 Z"
           style="letter-spacing:0px;writing-mode:vertical-lr;text-orientation:upright"
           id="path4435" />
        <path
           d="m 129.8577,49.246967 8.77184,12.075039 h -5.23007 l -8.09285,-11.597909 h -0.77074 v 11.597909 h -4.27582 V 32.987873 h 5.00986 q 5.61544,0 8.1112,2.110379 2.75267,2.348944 2.75267,6.202679 0,3.009584 -1.72501,5.175017 -1.72501,2.165432 -4.55108,2.771019 z m -5.32182,-3.248148 h 1.35798 q 6.07422,0 6.07422,-4.642834 0,-4.349216 -5.90906,-4.349216 h -1.52314 z"
           style="letter-spacing:0px;writing-mode:vertical-lr;text-orientation:upright"
           id="path4437" />
        <path
           d="m 112.51589,98.905098 5.96411,-30.462864 9.7261,22.021348 10.07477,-22.021348 5.35852,30.462864 h -4.38591 l -2.73432,-17.103246 -8.38646,18.406178 -8.1479,-18.42453 -3.04629,17.121598 z"
           style="letter-spacing:0px;writing-mode:vertical-lr;text-orientation:upright"
           id="path4439" />
      </g>
      <g
         aria-label="S
"
         transform="scale(0.83177534,1.2022477)"
         id="text4393"
         style="font-weight:500;font-size:134.701px;line-height:1.25;font-family:'Fira Code';-inkscape-font-specification:'Fira Code, Medium';stroke-width:3.36751">
        <path
           d="m 157.24832,41.435165 q 0,8.496525 -4.35188,15.058882 -4.2828,6.493279 -12.50302,10.154383 -8.22021,3.592027 -19.47984,3.592027 -11.25962,0 -20.03245,-3.315717 -8.772837,-3.384794 -15.058884,-9.463609 l 8.772835,-9.808996 q 5.249885,4.83542 11.674089,7.391286 6.49328,2.555865 14.57534,2.555865 5.52619,0 9.94715,-1.726936 4.49003,-1.796013 7.11497,-5.249885 2.69402,-3.453872 2.69402,-8.427448 0,-4.282801 -1.72693,-7.184053 -1.72694,-2.901253 -5.94066,-5.180808 Q 128.71933,27.5506 121.05174,25.271045 110.48289,22.093483 103.78238,18.363301 97.150946,14.633119 93.697074,9.4523116 90.312279,4.2024263 90.312279,-3.1197821 q 0,-7.5985179 4.213724,-13.4700999 4.282801,-5.871583 11.743167,-9.049145 7.46036,-3.246639 16.78582,-3.246639 10.01622,0 17.82197,2.901252 7.87483,2.901252 14.0918,8.565602 l -8.42745,9.5326867 q -4.90449,-4.2828007 -10.63792,-6.3551247 -5.73343,-2.072323 -11.88132,-2.072323 -7.6676,0 -12.50302,3.177562 -4.76634,3.1775626 -4.76634,9.1182222 0,3.79925911 2.00325,6.3551243 2.07232,2.5558652 6.76958,4.7663432 4.69727,2.2104781 13.53918,4.8354203 8.98007,2.69402 15.05888,6.147892 6.07882,3.384795 9.60177,9.118222 3.52295,5.66435 3.52295,14.229952 z"
           id="path4430" />
      </g>
      <g
         id="g4407"
         transform="translate(67.612424,-53.846112)">
        <g
           aria-label="+
"
           transform="scale(0.99848021,1.0015221)"
           id="text4399"
           style="font-weight:bold;font-size:56.467px;line-height:1.25;font-family:'Fira Code';-inkscape-font-specification:'Fira Code, Bold';stroke-width:1.41162">
          <path
             d="m 111.17331,80.00726 h 7.64476 v 11.901506 h 11.66985 v 7.065614 h -11.66985 v 11.90151 h -7.64476 V 98.97438 H 99.561375 v -7.065614 h 11.611935 z"
             id="path4424" />
        </g>
        <g
           aria-label="+
"
           transform="scale(0.99848021,1.0015221)"
           id="text4405"
           style="font-weight:bold;font-size:56.467px;line-height:1.25;font-family:'Fira Code';-inkscape-font-specification:'Fira Code, Bold';stroke-width:1.41162">
          <path
             d="m 111.17331,46.208928 h 7.64476 v 11.901506 h 11.66985 v 7.065614 h -11.66985 v 11.901506 h -7.64476 V 65.176048 H 99.561375 v -7.065614 h 11.611935 z"
             id="path4427" />
        </g>
      </g>
      <g
         aria-label="LURM
"
         transform="scale(1.1671604,0.85678028)"
         id="text4413"
         style="font-size:37.5831px;line-height:1.25;font-family:Futura;-inkscape-font-specification:'Futura, Normal';letter-spacing:7.16965px;stroke-width:0.939587">
        <path
           d="m 127.51793,-42.17833 v 24.315238 h 8.33141 v 4.018896 H 123.24212 V -42.17833 Z"
           style="letter-spacing:0px;writing-mode:vertical-lr;text-orientation:upright"
           id="path4415" />
        <path
           d="M 121.96672,-4.5952266 V 12.471317 q 0,3.651874 1.19282,5.340177 1.78006,2.4407 5.00986,2.4407 3.24815,0 5.02821,-2.4407 1.19282,-1.63325 1.19282,-5.340177 V -4.5952266 h 4.27581 V 13.645789 q 0,4.477674 -2.78937,7.377152 -3.13804,3.229797 -7.70747,3.229797 -4.56943,0 -7.68912,-3.229797 -2.78937,-2.899478 -2.78937,-7.377152 V -4.5952266 Z"
           style="letter-spacing:0px;writing-mode:vertical-lr;text-orientation:upright"
           id="path4417" />
        <path
           d="m 129.8577,49.246967 8.77184,12.075039 h -5.23007 l -8.09285,-11.597909 h -0.77074 v 11.597909 h -4.27582 V 32.987873 h 5.00986 q 5.61544,0 8.1112,2.110379 2.75267,2.348944 2.75267,6.202679 0,3.009584 -1.72501,5.175017 -1.72501,2.165432 -4.55108,2.771019 z m -5.32182,-3.248148 h 1.35798 q 6.07422,0 6.07422,-4.642834 0,-4.349216 -5.90906,-4.349216 h -1.52314 z"
           style="letter-spacing:0px;writing-mode:vertical-lr;text-orientation:upright"
           id="path4419" />
        <path
           d="m 112.51589,98.905098 5.96411,-30.462864 9.7261,22.021348 10.07477,-22.021348 5.35852,30.462864 h -4.38591 l -2.73432,-17.103246 -8.38646,18.406178 -8.1479,-18.42453 -3.04629,17.121598 z"
           style="letter-spacing:0px;writing-mode:vertical-lr;text-orientation:upright"
           id="path4421" />
      </g>
    </g>
  </g>
</svg>
