<?xml version="1.0" encoding="UTF-8" standalone="no"?>
<!-- Created with Inkscape (http://www.inkscape.org/) -->

<svg
   width="128"
   height="128"
   viewBox="0 0 128 128"
   version="1.1"
   id="svg5"
   inkscape:version="1.2.1 (9c6d41e, 2022-07-14)"
   sodipodi:docname="spp-strokes.svg"
   inkscape:export-filename="spp.svg"
   inkscape:export-xdpi="300"
   inkscape:export-ydpi="300"
   xmlns:inkscape="http://www.inkscape.org/namespaces/inkscape"
   xmlns:sodipodi="http://sodipodi.sourceforge.net/DTD/sodipodi-0.dtd"
   xmlns="http://www.w3.org/2000/svg"
   xmlns:svg="http://www.w3.org/2000/svg">
  <sodipodi:namedview
     id="namedview7"
     pagecolor="#ffffff"
     bordercolor="#999999"
     borderopacity="1"
     inkscape:showpageshadow="0"
     inkscape:pageopacity="0"
     inkscape:pagecheckerboard="0"
     inkscape:deskcolor="#d1d1d1"
     inkscape:document-units="px"
     showgrid="false"
     inkscape:zoom="2.9163555"
     inkscape:cx="102.18233"
     inkscape:cy="49.71959"
     inkscape:window-width="1440"
     inkscape:window-height="740"
     inkscape:window-x="0"
     inkscape:window-y="31"
     inkscape:window-maximized="0"
     inkscape:current-layer="g612" />
  <defs
     id="defs2" />
  <g
     inkscape:label="Layer 1"
     inkscape:groupmode="layer"
     id="layer1">
    <g
       id="g612"
       transform="translate(0.11380501,-6.0001963)">
      <g
         aria-label="S
"
         transform="scale(1.0202257,0.98017527)"
         id="text236"
         style="font-weight:500;font-size:123.964px;line-height:1.25;font-family:'Fira Code';-inkscape-font-specification:'Fira Code, Medium';stroke-width:3.0991">
        <path
           d="m 69.430311,90.817133 q 0,7.819267 -4.004991,13.858537 -3.941419,5.9757 -11.506401,9.34498 -7.564983,3.30571 -17.927101,3.30571 -10.362119,0 -18.435672,-3.05142 -8.0735524,-3.115 -13.8585389,-8.70927 L 11.77116,96.538548 q 4.831417,4.449992 10.743546,6.802122 5.9757,2.35214 13.41354,2.35214 5.085703,0 9.154265,-1.58928 4.132133,-1.65285 6.547842,-4.831417 2.479279,-3.178564 2.479279,-7.755696 0,-3.94142 -1.589282,-6.611414 Q 50.931068,82.23501 47.05322,80.137157 43.175372,78.039305 36.11896,75.941453 26.392554,73.017174 20.22614,69.584325 14.123297,66.151476 10.944733,61.38363 7.8297403,56.552212 7.8297403,49.813657 q 0,-6.992841 3.8778477,-12.3964 3.94142,-5.403559 10.807118,-8.327838 6.865698,-2.98785 15.447821,-2.98785 9.217836,0 16.401391,2.669994 7.247126,2.669994 12.968541,7.882839 l -7.755696,8.772836 q -4.513561,-3.941419 -9.789978,-5.848557 -5.276416,-1.907139 -10.93426,-1.907139 -7.056412,0 -11.506402,2.924279 -4.386418,2.924279 -4.386418,8.391409 0,3.49642 1.843567,5.848558 1.907139,2.352137 6.229986,4.386418 4.322847,2.034281 12.459971,4.44999 8.264266,2.47928 13.858539,5.657844 5.594272,3.114993 8.836408,8.391409 3.242135,5.212845 3.242135,13.095684 z"
           id="path3002" />
      </g>
      <g
         aria-label="+
"
         transform="scale(0.99848021,1.0015221)"
         id="text400"
         style="font-weight:500;font-size:47.4405px;line-height:1.25;font-family:'Fira Code';-inkscape-font-specification:'Fira Code, Medium';stroke-width:1.18601">
        <path
           d="m 81.695007,24.962002 h 4.792707 v 9.80437 h 9.658399 v 4.379123 h -9.658399 v 9.780041 h -4.792707 v -9.780041 h -9.585413 v -4.379123 h 9.585413 z"
           id="path2999" />
      </g>
      <g
         aria-label="+
"
         transform="scale(0.99848021,1.0015221)"
         id="text400-0"
         style="font-weight:500;font-size:47.4405px;line-height:1.25;font-family:'Fira Code';-inkscape-font-specification:'Fira Code, Medium';stroke-width:1.18601">
        <path
           d="m 109.73763,24.962002 h 4.7927 v 9.80437 h 9.6584 v 4.379123 h -9.6584 v 9.780041 h -4.7927 v -9.780041 h -9.58542 v -4.379123 h 9.58542 z"
           id="path2996" />
      </g>
      <g
         aria-label="LURM
"
         transform="scale(0.56709087,1.7633858)"
         id="text598"
         style="font-size:38.9081px;line-height:1.25;font-family:'Fira Code';-inkscape-font-specification:'Fira Code, Normal';stroke-width:0.972711">
        <path
           d="M 145.51459,63.877583 H 129.91144 V 36.402478 h 3.4718 v 24.382409 h 12.5304 z"
           id="path2987" />
        <path
           d="m 169.49788,54.978602 q 0,2.773449 -1.11736,4.888453 -1.11736,2.115005 -3.19246,3.292224 -2.05514,1.17722 -4.80864,1.17722 -2.77345,0 -4.8286,-1.17722 -2.03519,-1.177219 -3.1326,-3.292224 -1.07745,-2.115004 -1.07745,-4.888453 V 36.402478 h 3.43189 v 18.695841 q 0,3.092695 1.43661,4.668972 1.45656,1.576277 4.17015,1.576277 2.73354,0 4.17015,-1.576277 1.45656,-1.576277 1.45656,-4.668972 V 36.402478 h 3.49175 z"
           id="path2989" />
        <path
           d="m 193.84033,44.104287 q 0,2.953025 -1.85562,4.908406 -1.85562,1.935429 -4.84855,2.673685 l 8.14078,12.191205 h -4.1502 l -7.50228,-11.792148 h -3.71124 v 11.792148 h -3.4718 V 36.402478 h 7.06332 q 5.08798,0 7.70181,1.955381 2.63378,1.955382 2.63378,5.746428 z m -3.71124,0 q 0,-2.613827 -1.51641,-3.771093 -1.49647,-1.17722 -4.70888,-1.17722 h -3.99058 v 10.215871 h 3.99058 q 3.07274,0 4.64902,-1.237078 1.57627,-1.257031 1.57627,-4.03048 z"
           id="path2991" />
        <path
           d="m 217.50438,36.402478 1.55632,27.475105 h -3.33213 L 214.8706,49.531468 q -0.21948,-3.830952 -0.21948,-8.81917 v -1.137313 l -4.62907,19.374238 h -3.4718 l -4.96826,-19.374238 q 0.0599,1.197172 0.0599,4.489396 0,3.372035 -0.0998,5.427181 l -0.73826,14.386021 h -3.25231 l 1.55632,-27.475105 h 4.8286 l 4.44949,18.815558 4.24996,-18.815558 z"
           id="path2993" />
      </g>
    </g>
  </g>
</svg>
